<svg width="35" height="49" viewBox="0 0 35 49" fill="none" xmlns="http://www.w3.org/2000/svg">
<mask id="path-1-inside-1_447_422" fill="white">
<path fill-rule="evenodd" clip-rule="evenodd" d="M15.8094 48.0128C16.5377 48.5909 17.5682 48.5909 18.2965 48.0128L33.345 36.0664C34.8287 34.8886 33.9958 32.5 32.1015 32.5L27.0529 32.5L27.053 2C27.053 0.895431 26.1575 -3.47415e-07 25.053 -3.95698e-07L10.053 -1.05137e-06C8.94838 -1.09965e-06 8.05295 0.895431 8.05295 2L8.05295 32.5L2.00439 32.5C0.110064 32.5 -0.722784 34.8886 0.76087 36.0664L15.8094 48.0128Z"/>
</mask>
<path fill-rule="evenodd" clip-rule="evenodd" d="M15.8094 48.0128C16.5377 48.5909 17.5682 48.5909 18.2965 48.0128L33.345 36.0664C34.8287 34.8886 33.9958 32.5 32.1015 32.5L27.0529 32.5L27.053 2C27.053 0.895431 26.1575 -3.47415e-07 25.053 -3.95698e-07L10.053 -1.05137e-06C8.94838 -1.09965e-06 8.05295 0.895431 8.05295 2L8.05295 32.5L2.00439 32.5C0.110064 32.5 -0.722784 34.8886 0.76087 36.0664L15.8094 48.0128Z" fill="#FCF1E5"/>
<path d="M18.2965 48.0128L19.54 49.5792L19.54 49.5792L18.2965 48.0128ZM15.8094 48.0128L17.053 46.4464L15.8094 48.0128ZM33.345 36.0664L32.1015 34.5L32.1015 34.5L33.345 36.0664ZM27.0529 32.5L25.0529 32.5L25.0529 34.5L27.0529 34.5L27.0529 32.5ZM25.053 -3.95698e-07L25.053 2L25.053 -3.95698e-07ZM10.053 -1.05137e-06L10.053 -2L10.053 -1.05137e-06ZM8.05295 32.5L8.05295 34.5L10.053 34.5L10.053 32.5L8.05295 32.5ZM2.00439 32.5L2.00439 30.5L2.00439 32.5ZM0.76087 36.0664L2.00439 34.5L2.00438 34.5L0.76087 36.0664ZM17.053 46.4464L14.5659 49.5792C16.0224 50.7355 18.0835 50.7355 19.54 49.5792L17.053 46.4464ZM32.1015 34.5L17.053 46.4464L19.54 49.5792L34.5885 37.6328L32.1015 34.5ZM32.1015 34.5C32.1146 34.5 32.1219 34.501 32.1242 34.5014C32.1266 34.5018 32.1257 34.5018 32.1225 34.5007C32.1193 34.4996 32.1152 34.498 32.1107 34.4956C32.1063 34.4932 32.1024 34.4907 32.0993 34.4883C32.093 34.4836 32.0917 34.4811 32.0934 34.4834C32.0953 34.4861 32.0987 34.4918 32.1015 34.5C32.1044 34.5082 32.1053 34.5148 32.1054 34.5181C32.1056 34.5209 32.105 34.5181 32.107 34.5105C32.108 34.5067 32.1094 34.5024 32.1115 34.4978C32.1135 34.4931 32.1157 34.4892 32.1175 34.4864C32.1194 34.4835 32.12 34.483 32.1184 34.4848C32.1168 34.4866 32.1117 34.4919 32.1015 34.5L34.5885 37.6328C37.5559 35.2772 35.8902 30.5 32.1015 30.5L32.1015 34.5ZM27.0529 34.5L32.1015 34.5L32.1015 30.5L27.053 30.5L27.0529 34.5ZM25.053 2L25.0529 32.5L29.0529 32.5L29.053 2L25.053 2ZM25.053 2L25.053 2L29.053 2C29.053 -0.209139 27.2621 -2 25.053 -2L25.053 2ZM10.053 2L25.053 2L25.053 -2L10.053 -2L10.053 2ZM10.053 2L10.053 2L10.053 -2C7.84381 -2 6.05295 -0.209137 6.05295 2L10.053 2ZM10.053 32.5L10.053 2L6.05295 2L6.05295 32.5L10.053 32.5ZM2.00439 34.5L8.05295 34.5L8.05295 30.5L2.00439 30.5L2.00439 34.5ZM2.00438 34.5C1.99417 34.4919 1.98908 34.4866 1.98747 34.4848C1.98586 34.483 1.98654 34.4835 1.9884 34.4864C1.99024 34.4892 1.99241 34.4931 1.99444 34.4978C1.99646 34.5024 1.99792 34.5067 1.9989 34.5105C2.00087 34.5181 2.00032 34.5209 2.00046 34.5181C2.00062 34.5148 2.00152 34.5082 2.00438 34.5C2.00725 34.4918 2.01063 34.4861 2.01254 34.4834C2.01421 34.4811 2.0129 34.4836 2.00664 34.4883C2.00351 34.4907 1.99965 34.4932 1.99521 34.4956C1.99072 34.498 1.98661 34.4996 1.98341 34.5007C1.98017 34.5018 1.97933 34.5018 1.98169 34.5014C1.98405 34.501 1.99134 34.5 2.00439 34.5L2.00439 30.5C-1.78425 30.5 -3.44996 35.2772 -0.482641 37.6328L2.00438 34.5ZM17.053 46.4464L2.00439 34.5L-0.482645 37.6328L14.5659 49.5792L17.053 46.4464Z" fill="black" mask="url(#path-1-inside-1_447_422)"/>
</svg>
