<svg width="216" height="97" viewBox="0 0 216 97" fill="none" xmlns="http://www.w3.org/2000/svg">
<g clip-path="url(#clip0_429_429)">
<path d="M101.109 82.1217L120.179 33.5215L85.9814 37.7979L87.0889 46.8409L106.159 44.4576L87.0667 93.0579L122.926 88.581L121.818 79.538L101.109 82.1217Z" fill="black"/>
<path d="M25.9805 53.2329L10.8751 55.1261H10.8529L11.2073 45.0586L33.4668 41.7176L32.1158 32.7192L2.05984 37.1516L0 96.1312L9.01456 96.9998H9.03671L10.5428 64.3472L27.1323 62.2758L25.9805 53.2329Z" fill="black"/>
<path d="M54.0875 33.8554C49.1704 31.7171 45.6266 30.6035 45.5823 30.6035L41.7063 29.2671L40.3774 33.5213C21.1301 94.2159 21.7059 93.414 21.7059 93.414L30.9641 93.7259C30.9641 93.7259 33.2676 85.8189 34.9731 80.7406C37.0108 74.6822 38.1403 71.2744 38.7827 69.2921L47.3099 85.997L55.2392 81.5869L45.6045 62.8329C49.3476 62.7438 52.5149 61.9197 55.4385 60.316C59.5139 58.0887 62.061 54.4136 62.8584 49.7139C63.9437 43.2992 61.1751 36.9514 54.0875 33.8777V33.8554ZM51.5625 53.1217C47.5979 55.5495 43.4118 53.7454 43.4118 53.7454C43.4118 53.7454 48.2623 39.7801 48.2623 39.7578C48.2623 39.7578 54.3533 42.0074 54.5747 46.5289C54.7076 49.0903 53.423 51.9858 51.5625 53.1217Z" fill="black"/>
<path d="M126.669 62.8106L139.25 12.1167L105.894 20.8701L108.175 29.6903L126.758 24.8125L114.177 75.5064L149.15 66.3298L146.869 57.5096L126.669 62.8106Z" fill="black"/>
<path d="M148.906 45.2594L152.361 2.65066L143.834 1.87109L138.917 55.1487L160.335 53.5228L159.67 44.4575L148.906 45.2594Z" fill="black"/>
<path d="M185.895 15.502L184.322 6.63721L165.695 10.8023L161.863 68.5346L184.189 63.5231L182.683 54.6583L171.697 56.9747L173.026 37.3966L183.458 34.9465L181.886 26.0818L173.646 27.9082L174.289 18.1525L185.895 15.502Z" fill="black"/>
<path d="M190.125 0C189.948 0 187.91 57.3313 187.91 57.3313C187.91 57.3313 193.115 56.6631 195.618 55.8613C206.227 52.4981 215.087 42.141 215.087 28.2648C215.087 0.69047 190.324 0 190.125 0ZM196.26 46.3506L197.811 10.5575C201.642 12.6512 207.534 19.8677 207.534 28.287C207.534 41.3169 196.238 46.3506 196.238 46.3506H196.26Z" fill="black"/>
<path d="M74.6413 27.2402L71.1861 28.1089L61.795 71.2744C61.7285 71.6085 61.95 71.9204 62.2823 71.9649L70.6767 72.9672L72.4929 63.3006L80.5993 62.0533L83.5008 69.938L90.677 64.7929C90.8985 64.637 90.9871 64.3475 90.8542 64.0579C89.7689 61.6747 88.7058 59.2914 87.6205 56.9305C83.08 46.9298 79.1596 37.2409 74.6191 27.2625L74.6413 27.2402ZM73.556 55.1486C73.556 55.1486 74.4641 41.9629 74.8849 39.4237L78.2958 54.6141L73.556 55.1486Z" fill="black"/>
</g>
<defs>
<clipPath id="clip0_429_429">
<rect width="215.087" height="97" fill="white"/>
</clipPath>
</defs>
</svg>
